<svg xmlns="http://www.w3.org/2000/svg" fill="none" viewBox="0 0 1226 1226" height="1226" width="1226">
<path fill="white" d="M1225 613C1225 950.998 950.998 1225 613 1225C275.002 1225 1 950.998 1 613C1 275.002 275.002 1 613 1C950.998 1 1225 275.002 1225 613Z"></path>
<path fill="black" d="M577.306 68.2933C574.962 68.5064 567.503 69.2521 560.791 69.7848C405.975 83.7407 260.961 167.263 169.115 295.636C117.972 367.014 85.261 447.979 72.9013 533.739C68.5327 563.675 68 572.517 68 613.107C68 653.696 68.5327 662.538 72.9013 692.474C102.522 897.126 248.175 1069.07 445.718 1132.78C481.092 1144.18 518.384 1151.95 560.791 1156.64C577.306 1158.45 648.694 1158.45 665.209 1156.64C738.409 1148.55 800.42 1130.43 861.58 1099.22C870.956 1094.43 872.767 1093.15 871.489 1092.08C870.636 1091.44 830.68 1037.86 782.733 973.084L695.576 855.364L586.363 693.753C526.269 604.904 476.83 532.248 476.404 532.248C475.978 532.141 475.551 603.945 475.338 691.622C475.019 845.137 474.912 851.316 472.994 854.938C470.224 860.158 468.093 862.289 463.618 864.633C460.208 866.337 457.225 866.657 441.136 866.657H422.703L417.802 863.567C414.605 861.543 412.261 858.88 410.663 855.79L408.425 850.996L408.638 637.396L408.958 423.69L412.261 419.535C413.966 417.298 417.588 414.421 420.146 413.036C424.514 410.906 426.219 410.693 444.652 410.693C466.388 410.693 470.011 411.545 475.658 417.724C477.256 419.428 536.391 508.491 607.14 615.77C677.889 723.05 774.635 869.533 822.156 941.444L908.461 1072.16L912.83 1069.28C951.507 1044.14 992.422 1008.35 1024.81 971.06C1093.75 891.905 1138.18 795.386 1153.1 692.474C1157.47 662.538 1158 653.696 1158 613.107C1158 572.517 1157.47 563.675 1153.1 533.739C1123.48 329.088 977.825 157.142 780.283 93.4353C745.441 82.1427 708.362 74.3657 666.807 69.6783C656.579 68.6129 586.15 67.4411 577.306 68.2933V68.2933ZM800.42 397.909C805.535 400.465 809.69 405.366 811.182 410.48C812.034 413.249 812.247 472.482 812.034 605.969L811.715 797.517L777.938 745.741L744.056 693.966V554.726C744.056 464.705 744.482 414.102 745.121 411.651C746.826 405.686 750.555 400.998 755.67 398.228C760.038 395.991 761.636 395.778 778.365 395.778C794.134 395.778 796.904 395.991 800.42 397.909V397.909Z"></path>
<path fill="black" d="M902.993 1074.26C899.269 1076.63 898.099 1078.24 901.397 1076.41C903.738 1075.01 907.568 1072.11 906.929 1072C906.61 1072 904.801 1073.08 902.993 1074.26ZM895.652 1079.1C893.737 1080.61 893.737 1080.72 896.078 1079.53C897.354 1078.89 898.418 1078.14 898.418 1077.92C898.418 1077.06 897.886 1077.27 895.652 1079.1ZM890.333 1082.33C888.418 1083.84 888.418 1083.95 890.758 1082.76C892.035 1082.12 893.099 1081.36 893.099 1081.15C893.099 1080.29 892.567 1080.5 890.333 1082.33ZM885.013 1085.56C883.098 1087.07 883.098 1087.18 885.439 1085.99C886.715 1085.35 887.779 1084.59 887.779 1084.38C887.779 1083.52 887.247 1083.73 885.013 1085.56ZM876.928 1089.87C872.885 1092.02 873.098 1092.88 877.141 1090.84C878.949 1089.87 880.332 1088.9 880.332 1088.68C880.332 1087.93 880.226 1088.04 876.928 1089.87Z"></path>
</svg>
